<svg width="38" height="28" viewBox="0 0 38 28" fill="none" xmlns="http://www.w3.org/2000/svg">
<g clip-path="url(#clip0_27_0)">
<path d="M38 20.1027C38 23.7097 35.9973 26.6339 32.0625 26.6339H5.9375C2.00272 26.6339 0 23.7097 0 20.1027V7.04018C0 3.43315 2.00272 0.50893 5.9375 0.50893H32.0625C35.9973 0.50893 38 3.43315 38 7.04018V20.1027Z" fill="#128807"/>
<path d="M33.9269 14.0405L19.0891 24.4667L4.25067 14.0405L19.0891 3.61424L33.9269 14.0405Z" fill="#F9CB38"/>
<path fill-rule="evenodd" clip-rule="evenodd" d="M24.9434 15.8562C24.2678 18.1522 22.1534 19.9002 19.7594 20.1377C16.5609 20.4577 13.7625 18.4247 13.0821 15.282C12.8808 14.3585 12.9065 13.3999 13.1569 12.4884C13.2501 12.3875 13.379 12.3631 13.5072 12.3453C14.4427 12.2154 15.3884 12.1743 16.3317 12.2224C17.3381 12.2794 18.3362 12.419 19.3064 12.6933C20.3021 12.9753 21.2664 13.3434 22.1766 13.8327C22.8616 14.1966 23.5158 14.6156 24.133 15.0855C24.342 15.2476 24.5551 15.4067 24.7558 15.5795C24.8455 15.6567 24.9155 15.7398 24.9429 15.8562" fill="#002776"/>
<path fill-rule="evenodd" clip-rule="evenodd" d="M13.4924 11.5592C14.2589 9.84624 15.5515 8.70565 17.3381 8.17009C20.9362 7.09124 24.6276 9.46921 25.1625 13.1778C25.2457 13.7507 25.2492 14.3255 25.1613 14.8996C25.0705 14.9335 25.0028 14.8854 24.9405 14.8337C24.2884 14.3009 23.5926 13.8238 22.8606 13.4076C22.2969 13.0877 21.7112 12.8083 21.1078 12.5716C21.0009 12.5294 20.8667 12.5074 20.8299 12.3643C20.8685 12.2955 20.9172 12.2355 20.9754 12.1797C20.9962 12.1583 21.0265 12.1375 20.9986 12.1019C20.9891 12.0906 20.9695 12.0906 20.9528 12.0924C20.9083 12.0971 20.9142 12.128 20.916 12.1607C20.9196 12.267 20.8578 12.3352 20.7765 12.3899C20.6322 12.4225 20.4939 12.3792 20.3769 12.3168C20.042 12.1411 19.6715 12.0811 19.3171 11.9831C18.7643 11.8329 18.1967 11.748 17.6302 11.6596C17.1781 11.5874 16.7231 11.5355 16.2664 11.504C15.8507 11.4749 15.4274 11.4791 15.0088 11.5076C14.5522 11.5396 14.0944 11.5717 13.6402 11.6263C13.6117 11.6305 13.5827 11.6263 13.5564 11.6145C13.5302 11.6026 13.508 11.5834 13.4924 11.5592Z" fill="#002776"/>
<path fill-rule="evenodd" clip-rule="evenodd" d="M20.8347 12.3275C20.8323 12.4 20.897 12.3905 20.9362 12.4059C22.4695 13.0024 23.8954 13.8446 25.1578 14.8996C25.1213 15.2254 25.0493 15.5462 24.9428 15.8562C24.2001 15.2399 23.4395 14.6526 22.5981 14.1729C19.9387 12.6582 17.0911 12.058 14.0469 12.3798C13.7501 12.4101 13.4532 12.4504 13.1563 12.4866C13.2329 12.1654 13.3303 11.8501 13.49 11.558C15.7124 11.2582 17.8962 11.4286 20.0391 12.0918C20.3051 12.1743 20.5586 12.3073 20.8424 12.3323L20.8347 12.3257" fill="#FEFEFE"/>
<path fill-rule="evenodd" clip-rule="evenodd" d="M23.6016 16.1542C23.4229 16.1352 23.617 16.3543 23.4365 16.3496C23.2792 16.3472 23.2709 16.2213 23.1937 16.1513C23.253 16.0895 23.3581 16.0771 23.3914 15.9809C23.4139 16.0824 23.5095 16.1038 23.6016 16.1542Z" fill="#D9DFEA"/>
<path fill-rule="evenodd" clip-rule="evenodd" d="M16.8589 17.2527C16.6909 17.2723 16.8316 17.4551 16.6909 17.4581C16.549 17.4611 16.4759 17.356 16.4474 17.2473C16.4373 17.2165 16.5739 17.1476 16.641 17.0965C16.6493 17.204 16.7609 17.1992 16.8589 17.2527Z" fill="#E9ECF3"/>
<path fill-rule="evenodd" clip-rule="evenodd" d="M19.0831 16.922C18.8498 17.0728 19.038 16.732 18.9008 16.7652C18.9453 16.694 19.0712 16.7106 19.0795 16.6013C19.1389 16.6631 19.1894 16.7343 19.2838 16.7474C19.149 16.729 19.2957 17.0282 19.0831 16.922Z" fill="#EDEFF5"/>
<path fill-rule="evenodd" clip-rule="evenodd" d="M14.2618 12.9213C14.206 13.0276 14.1639 13.1463 13.9946 13.0751C13.9079 13.0388 14.0006 12.9201 13.8967 12.9088L14.089 12.7396C14.1021 12.7675 14.1175 12.7942 14.1306 12.8221C14.146 12.8928 14.2868 12.799 14.2618 12.9213Z" fill="#F0F2F6"/>
<path fill-rule="evenodd" clip-rule="evenodd" d="M14.8004 15.5011C14.7119 15.529 14.7754 15.7618 14.5854 15.6602C14.5664 15.6507 14.4833 15.6965 14.4987 15.6697C14.5486 15.5724 14.437 15.5249 14.4542 15.4471C14.5581 15.4922 14.5522 15.3022 14.6585 15.3533C14.6662 15.3592 14.6662 15.383 14.6715 15.3984C14.6828 15.472 14.8265 15.38 14.8004 15.5011Z" fill="#ECEFF4"/>
<path fill-rule="evenodd" clip-rule="evenodd" d="M13.8664 16.1887C13.6842 16.2522 13.8201 16.0319 13.7156 16.0337C13.7643 15.9927 13.819 15.9161 13.8676 15.9191C13.9258 15.9221 13.9793 15.9939 14.0327 16.0349C13.9531 16.0616 14.0369 16.2771 13.8664 16.1887Z" fill="#D9DFEA"/>
<path fill-rule="evenodd" clip-rule="evenodd" d="M20.9119 18.29C20.7189 18.3778 20.9065 18.1184 20.7777 18.1522C20.7646 18.0531 20.9255 18.113 20.9053 18.0085L21.0793 18.1481C21.0086 18.1801 21.0793 18.382 20.9119 18.29Z" fill="#D8DEEA"/>
<path fill-rule="evenodd" clip-rule="evenodd" d="M22.1469 18.1469C21.9871 18.2134 22.0851 17.9984 21.999 17.9771C22.0572 17.9396 22.1184 17.8999 22.1754 17.8613C22.1801 17.9491 22.3007 17.9171 22.3137 17.9949C22.2241 18.0002 22.3173 18.1938 22.1469 18.1469Z" fill="#DCE1EC"/>
<path fill-rule="evenodd" clip-rule="evenodd" d="M23.2572 17.3477C23.0755 17.4397 23.2097 17.1981 23.1058 17.2081C23.1266 17.131 23.2459 17.1601 23.253 17.071L23.4234 17.1987C23.3195 17.1957 23.4472 17.4504 23.2572 17.3477Z" fill="#DCE1EC"/>
<path fill-rule="evenodd" clip-rule="evenodd" d="M15.9024 16.2391C15.7124 16.3466 15.8365 16.1061 15.7486 16.1014C15.7575 16.0129 15.8917 16.0509 15.8976 15.9571C15.9154 16.0438 16.0306 16.0189 16.0556 16.0966C15.9422 16.08 16.1037 16.3526 15.9024 16.2391Z" fill="#D4DAE7"/>
<path fill-rule="evenodd" clip-rule="evenodd" d="M16.6725 14.4353C16.565 14.4282 16.7028 14.259 16.571 14.2697C16.5935 14.1747 16.6951 14.1943 16.7509 14.145C16.7794 14.205 16.8601 14.2186 16.8643 14.3047C16.8738 14.4621 16.7343 14.3807 16.6725 14.4353Z" fill="#F2F4F7"/>
<path fill-rule="evenodd" clip-rule="evenodd" d="M19.8015 15.6893C19.6371 15.7837 19.7238 15.573 19.6478 15.5498C19.6994 15.5071 19.7493 15.4637 19.8015 15.4198C19.8051 15.5076 19.9731 15.4881 19.9256 15.5557C19.8971 15.5961 19.9892 15.7808 19.8015 15.6893Z" fill="#E6E9F1"/>
<path fill-rule="evenodd" clip-rule="evenodd" d="M19.0653 15.1603C18.8777 15.1793 19.0712 15.0089 18.9495 15.0131C18.997 14.9685 19.0427 14.8925 19.0962 14.8878C19.1425 14.883 19.1959 14.9584 19.2464 15C19.1805 15.0635 19.1906 15.2274 19.0653 15.1603Z" fill="#EAEDF3"/>
<path fill-rule="evenodd" clip-rule="evenodd" d="M23.6205 16.5461C23.6591 16.6482 23.7351 16.6619 23.7945 16.6981C23.7339 16.7664 23.7102 16.8709 23.5843 16.8709C23.4555 16.8721 23.5427 16.7741 23.5136 16.7284C23.4418 16.6144 23.7072 16.7106 23.6205 16.5461Z" fill="#E4E8F0"/>
<path fill-rule="evenodd" clip-rule="evenodd" d="M22.2763 18.6147C22.2311 18.6818 22.262 18.746 22.1421 18.7483C22.0049 18.7507 22.0489 18.6504 22.0429 18.6195C22.0316 18.5684 22.11 18.5197 22.1551 18.5298C22.1943 18.537 22.2703 18.5589 22.2763 18.6147Z" fill="#CED5E4"/>
<path fill-rule="evenodd" clip-rule="evenodd" d="M15.8614 16.7124C15.7635 16.7236 15.8448 16.8519 15.7207 16.8477C15.6073 16.8442 15.6239 16.7676 15.6115 16.7213C15.5919 16.6566 15.6875 16.6583 15.7088 16.6097C15.754 16.6411 15.7997 16.6726 15.8614 16.7124Z" fill="#DAE0EB"/>
<path fill-rule="evenodd" clip-rule="evenodd" d="M22.0103 17.3904C22.0525 17.359 22.0946 17.3299 22.1392 17.3002C22.1427 17.3661 22.2846 17.3281 22.2371 17.4124C22.2175 17.4462 22.2656 17.5389 22.1427 17.5306C22.0323 17.5228 22.0584 17.4456 22.0103 17.3904Z" fill="#D8DEE9"/>
<path fill-rule="evenodd" clip-rule="evenodd" d="M21.559 17.5941C21.5377 17.7111 21.4712 17.7301 21.3981 17.7437C21.274 17.7645 21.3673 17.6713 21.3471 17.6356C21.2948 17.5466 21.4266 17.5638 21.4421 17.5056C21.4765 17.5507 21.5555 17.5496 21.559 17.5941Z" fill="#CBD2E3"/>
<path fill-rule="evenodd" clip-rule="evenodd" d="M20.8644 13.7436C20.8228 13.7632 20.878 13.8624 20.789 13.8339C20.7213 13.8107 20.6382 13.7786 20.6441 13.6955C20.6465 13.6635 20.7272 13.6367 20.7723 13.6088C20.7801 13.6688 20.9083 13.6492 20.8644 13.7436Z" fill="#D1D8E6"/>
<path fill-rule="evenodd" clip-rule="evenodd" d="M24.2244 16.3478C24.1128 16.3917 24.1632 16.2997 24.1436 16.273C24.0688 16.1715 24.2167 16.1863 24.2244 16.1257C24.2701 16.156 24.3592 16.1905 24.3556 16.2166C24.353 16.2505 24.3383 16.2824 24.3143 16.3065C24.2902 16.3306 24.2583 16.3452 24.2244 16.3478Z" fill="#DADFEA"/>
<path fill-rule="evenodd" clip-rule="evenodd" d="M18.4834 15.4417C18.4834 15.5106 18.6224 15.4833 18.5755 15.5694C18.5565 15.6044 18.5968 15.6982 18.5007 15.6786C18.4276 15.6638 18.354 15.6211 18.3516 15.5486C18.3516 15.5148 18.4359 15.4786 18.4834 15.4417Z" fill="#CAD2E2"/>
<path fill-rule="evenodd" clip-rule="evenodd" d="M20.3834 17.5899C20.3288 17.5644 20.3264 17.4926 20.33 17.4581C20.3359 17.4124 20.3971 17.3507 20.4493 17.3756C20.4814 17.391 20.5722 17.3821 20.5503 17.4652C20.5301 17.5448 20.4505 17.5561 20.3834 17.5899Z" fill="#D0D7E5"/>
<path fill-rule="evenodd" clip-rule="evenodd" d="M22.6812 17.4854C22.6836 17.4848 22.7252 17.4272 22.7721 17.4261C22.8059 17.4249 22.8403 17.4949 22.8766 17.5341C22.8279 17.5478 22.8694 17.6374 22.7732 17.6362C22.6866 17.6345 22.6866 17.5953 22.6812 17.4854Z" fill="#EFF2F6"/>
<path fill-rule="evenodd" clip-rule="evenodd" d="M18.861 15.9821C18.845 16.0462 18.845 16.086 18.788 16.0848C18.7298 16.0836 18.7013 16.0622 18.7025 16.0028C18.7025 15.9559 18.7334 15.9233 18.7684 15.9262C18.8088 15.9292 18.8664 15.9405 18.861 15.9821Z" fill="#CCD4E3"/>
<path fill-rule="evenodd" clip-rule="evenodd" d="M15.2202 15.0582C15.2487 15.0891 15.2813 15.1134 15.2938 15.1449C15.3045 15.171 15.2878 15.2108 15.251 15.2149C15.2101 15.2185 15.1661 15.2173 15.1531 15.1662C15.1412 15.1164 15.1845 15.0986 15.2202 15.0582Z" fill="#E0E5EE"/>
<path fill-rule="evenodd" clip-rule="evenodd" d="M14.8004 15.5011C14.7844 15.4328 14.6787 15.4762 14.6716 15.3978C14.6941 15.4572 14.8705 15.3248 14.8004 15.5011Z" fill="#7085B1"/>
<path fill-rule="evenodd" clip-rule="evenodd" d="M14.2619 12.9213C14.2488 12.8482 14.1366 12.9058 14.1307 12.8221C14.1621 12.872 14.3213 12.7538 14.2619 12.9213Z" fill="#5C75A7"/>
<path fill-rule="evenodd" clip-rule="evenodd" d="M20.8465 12.3341C20.8578 12.2889 20.894 12.2153 20.8798 12.2016C20.6862 12.0295 20.9445 12.0004 20.9831 11.9653C21.0538 11.8971 21.0425 12.185 21.2289 12.0027C21.1286 12.2254 20.9944 12.2895 20.84 12.3275L20.8465 12.3341Z" fill="#E7EAF2"/>
<path fill-rule="evenodd" clip-rule="evenodd" d="M15.1234 12.1494C14.9346 12.131 15.1026 11.8852 15.0616 11.7427C15.0106 11.5586 15.1448 11.561 15.2754 11.5604C15.4779 11.5592 15.5925 11.6447 15.5925 11.8585C15.5919 12.0686 15.4945 12.1518 15.1234 12.1494Z" fill="#15A24A"/>
<path fill-rule="evenodd" clip-rule="evenodd" d="M22.3375 13.3357C22.2959 13.4628 22.1421 13.5423 22.116 13.6991C22.1136 13.7199 22.0543 13.7157 22.043 13.6551C21.9955 13.3713 21.9931 13.3719 21.7835 13.5239C21.7669 13.5364 21.7378 13.5477 21.7218 13.5423C21.6909 13.5287 21.6784 13.4978 21.6968 13.4628C21.7663 13.3274 21.8316 13.1885 21.9094 13.0572C21.9616 12.9706 22.0252 13.043 22.0762 13.0679C22.1885 13.1231 22.3268 13.1546 22.3375 13.3357Z" fill="#13A248"/>
<path fill-rule="evenodd" clip-rule="evenodd" d="M22.8689 13.7977C22.7596 13.8416 22.7068 13.7591 22.6367 13.7294C22.5892 13.7092 22.5447 13.6902 22.5126 13.743C22.4776 13.7988 22.5126 13.8309 22.5607 13.8558C22.5976 13.8742 22.6367 13.8885 22.6641 13.9176C22.7121 13.9681 22.863 13.9544 22.8018 14.0619C22.7537 14.1474 22.673 14.0476 22.6195 14.0162C22.5275 13.9597 22.3452 13.9289 22.3648 13.8309C22.3951 13.6736 22.4847 13.5026 22.6041 13.3945C22.6997 13.3078 22.8054 13.4717 22.9128 13.5126C22.9591 13.5299 23.0381 13.5453 23.0245 13.6183C23.0114 13.6937 22.9556 13.6498 22.9128 13.6397C22.8125 13.6166 22.7151 13.4467 22.6361 13.5643C22.5886 13.6344 22.784 13.6635 22.8457 13.7406C22.8552 13.7519 22.8576 13.7674 22.8689 13.7977Z" fill="#11A147"/>
<path fill-rule="evenodd" clip-rule="evenodd" d="M24.1484 14.6372C24.1662 14.7761 24.1098 14.8706 23.9643 14.8468C23.8135 14.8219 23.6989 14.7298 23.6728 14.5648C23.6704 14.5482 23.6906 14.5143 23.7072 14.5096C23.7168 14.5064 23.7269 14.5054 23.7369 14.5066C23.7469 14.5078 23.7565 14.5112 23.7651 14.5165C23.7736 14.5219 23.7809 14.529 23.7864 14.5374C23.7919 14.5459 23.7955 14.5554 23.7969 14.5654C23.8159 14.6788 23.8753 14.7292 23.9946 14.7316C24.0178 14.5458 23.6823 14.4609 23.8753 14.2679C23.972 14.1711 24.0902 14.2513 24.1745 14.3291C24.2523 14.3997 24.3473 14.4775 24.2054 14.5784C24.1852 14.5677 24.1579 14.5505 24.143 14.5624C24.1128 14.5826 24.1425 14.6117 24.1484 14.6372Z" fill="#11A147"/>
<path fill-rule="evenodd" clip-rule="evenodd" d="M20.0473 12.869C19.9767 12.8292 19.9802 12.7912 19.9915 12.7497C20.0141 12.6612 19.9684 12.6149 19.8876 12.59C19.8069 12.5638 19.7445 12.5674 19.7226 12.6683C19.7148 12.7135 19.6911 12.7449 19.6418 12.7283C19.5848 12.7075 19.6133 12.6612 19.624 12.6274C19.6466 12.5496 19.6667 12.4712 19.7024 12.397C19.7344 12.3228 19.7119 12.1868 19.8288 12.1957C19.9529 12.2046 20.0871 12.2343 20.1815 12.337C20.2237 12.3821 20.2409 12.4599 20.2065 12.4938C20.1061 12.5971 20.1144 12.7431 20.0473 12.869Z" fill="#0FA046"/>
<path fill-rule="evenodd" clip-rule="evenodd" d="M16.3833 12.1132C16.1916 12.1856 16.0402 12.1435 15.8923 12.1464C15.8252 12.1482 15.8193 12.0977 15.8193 12.0467C15.824 11.9903 15.824 11.9333 15.824 11.8769C15.8311 11.564 15.9422 11.4838 16.2497 11.5711C16.2842 11.5806 16.3168 11.5865 16.3192 11.6251C16.3192 11.6786 16.2806 11.6881 16.2331 11.6869C16.2266 11.6857 16.2189 11.6839 16.2106 11.6851C16.1185 11.7076 15.9535 11.6037 15.9505 11.7415C15.9469 11.8472 16.1268 11.7724 16.2189 11.808C16.2319 11.8133 16.2462 11.8252 16.2664 11.8401C16.2082 11.9451 16.1114 11.8864 16.0366 11.8988C15.9921 11.906 15.9339 11.8864 15.9273 11.9588C15.919 12.0443 15.9784 12.0401 16.0366 12.0461C16.1357 12.058 16.2432 12.0206 16.3833 12.1132Z" fill="#0B9F43"/>
<path fill-rule="evenodd" clip-rule="evenodd" d="M14.8069 12.1583C14.7036 12.1357 14.7178 12.0764 14.7 12.0348C14.6692 11.9582 14.608 11.9582 14.5409 11.9636C14.4643 11.9707 14.4228 12.0004 14.4293 12.0853C14.434 12.1268 14.4507 12.1939 14.3735 12.1844C14.307 12.1761 14.326 12.1114 14.3224 12.0675C14.3165 11.9956 14.3093 11.922 14.3165 11.8507C14.326 11.7712 14.25 11.6495 14.3646 11.621C14.4827 11.5901 14.6193 11.5681 14.7422 11.6269C14.7956 11.6524 14.8378 11.7148 14.8182 11.7652C14.7731 11.8923 14.8087 12.0212 14.8069 12.1583Z" fill="#079D3F"/>
<path fill-rule="evenodd" clip-rule="evenodd" d="M13.5535 11.9564C13.5725 11.7955 13.6431 11.6649 13.8195 11.6708C13.9887 11.6762 14.0789 11.7937 14.0789 11.963C14.0789 12.131 14.0006 12.2468 13.8218 12.2456C13.6402 12.2444 13.5784 12.1126 13.5535 11.9564Z" fill="#15A24A"/>
<path fill-rule="evenodd" clip-rule="evenodd" d="M24.8567 14.9727C24.8401 15.1324 24.7612 15.2529 24.5789 15.269C24.4108 15.2826 24.3218 15.1864 24.3087 15.0285C24.2939 14.8688 24.4506 14.7162 24.6103 14.7174C24.7505 14.7186 24.8532 14.8201 24.8567 14.9727Z" fill="#11A147"/>
<path fill-rule="evenodd" clip-rule="evenodd" d="M21.5234 13.1142C21.6576 13.2223 21.4949 13.2936 21.4889 13.3844C21.3773 13.3327 21.2378 13.3535 21.1475 13.2556C21.0513 13.1511 21.0692 13.0329 21.1321 12.9177C21.2016 12.796 21.3084 12.7437 21.4397 12.7901C21.5596 12.8328 21.6493 12.9136 21.5911 13.0656C21.499 13.0822 21.4236 12.9611 21.2942 13.0424C21.3803 13.0822 21.4836 13.027 21.5234 13.1142Z" fill="#0C9F43"/>
<path fill-rule="evenodd" clip-rule="evenodd" d="M18.2934 11.8911C18.2151 11.9831 18.1575 11.9475 18.1034 11.9487C18.0512 11.9487 17.9954 11.9054 17.9307 11.9594C17.9888 12.0544 18.1296 11.9932 18.1842 12.0876C18.1765 12.1013 18.1729 12.1197 18.1628 12.1292C18.0844 12.191 17.9592 12.0413 17.9105 12.1648C17.8659 12.2711 17.9829 12.2343 18.0334 12.2521C18.0904 12.2747 18.161 12.2664 18.2299 12.3436C18.0702 12.4136 17.8796 12.381 17.8137 12.3038C17.7098 12.1821 17.7828 11.9659 17.8618 11.8579C17.955 11.7302 18.1254 11.8549 18.2934 11.8911Z" fill="#19A44D"/>
<path fill-rule="evenodd" clip-rule="evenodd" d="M19.3057 12.4077C19.1709 12.3934 19.0178 12.2984 18.9792 12.5205C18.978 12.5276 18.9311 12.5377 18.9168 12.5282C18.9008 12.5193 18.8919 12.4861 18.8949 12.4671C18.9299 12.3263 18.9477 12.1755 19.01 12.0491C19.0825 11.9066 19.2054 12.0271 19.3069 12.0407C19.428 12.0568 19.4951 12.1304 19.4821 12.2581C19.4702 12.3679 19.3871 12.3976 19.3057 12.4077Z" fill="#0D9F44"/>
<path fill-rule="evenodd" clip-rule="evenodd" d="M20.9119 12.7479C20.8988 12.9266 20.8109 13.0501 20.6322 13.0555C20.4725 13.0614 20.3828 12.9492 20.3864 12.7901C20.3911 12.6179 20.4749 12.4932 20.6607 12.4878C20.8311 12.4819 20.897 12.5965 20.9119 12.7479Z" fill="#0FA046"/>
<path fill-rule="evenodd" clip-rule="evenodd" d="M16.9094 12.1031C16.8898 12.1452 16.8738 12.2052 16.8174 12.1916C16.7194 12.1684 16.7633 12.074 16.7396 12.0122C16.6671 11.9416 16.6861 12.039 16.6636 12.0568C16.6553 12.1007 16.6754 12.1678 16.6161 12.1767C16.543 12.1856 16.5603 12.1156 16.562 12.074C16.568 11.9873 16.5692 11.8965 16.5929 11.8133C16.6137 11.7421 16.5383 11.6109 16.6802 11.6097C16.8055 11.6091 16.7782 11.7367 16.7942 11.8133C16.8108 11.9012 16.8197 11.9386 16.8916 11.8513C16.9658 11.8317 16.9812 11.8858 16.9984 11.938C17.0079 12.014 16.9741 12.0669 16.9094 12.1031Z" fill="#0EA044"/>
<path fill-rule="evenodd" clip-rule="evenodd" d="M23.2334 14.2839C23.2774 14.2839 23.3219 14.3421 23.3646 14.2922C23.3973 14.2548 23.3682 14.218 23.3391 14.1877C23.3177 14.1646 23.2952 14.1426 23.275 14.1177C23.2144 14.0446 23.1295 13.9746 23.2132 13.8689C23.2892 13.7721 23.3777 13.7959 23.4656 13.857C23.4816 13.8879 23.4763 13.9176 23.4596 13.9455C23.3949 14.047 23.5155 14.1088 23.5131 14.1955C23.5315 14.2768 23.5434 14.3587 23.4537 14.4056C23.3421 14.465 23.256 14.4104 23.1741 14.3391C23.1651 14.2922 23.1824 14.2691 23.2334 14.2839Z" fill="#10A146"/>
<path fill-rule="evenodd" clip-rule="evenodd" d="M21.5235 13.1142C21.4777 13.1463 21.3857 13.0424 21.3887 13.1208C21.3946 13.2597 21.3251 13.2472 21.2604 13.2063C21.1731 13.1522 21.1684 13.0596 21.2236 12.9741C21.2771 12.8904 21.3525 12.8417 21.4439 12.91C21.4997 12.951 21.5419 13.0127 21.59 13.0656L21.5235 13.1142Z" fill="#ECF7F0"/>
<path fill-rule="evenodd" clip-rule="evenodd" d="M16.9485 11.9624C16.9312 11.9257 16.9122 11.8898 16.8915 11.8549C16.9123 11.8021 16.9313 11.7486 16.9563 11.6976C16.9788 11.6495 17.018 11.6227 17.0732 11.6406C17.135 11.6613 17.1302 11.7088 17.1267 11.7587C17.1136 11.9042 17.1017 12.0491 17.0904 12.1945C17.0038 12.2497 16.9818 12.1993 16.9675 12.1245C16.9569 12.0704 16.9848 12.0122 16.9485 11.9624Z" fill="#17A34C"/>
<path fill-rule="evenodd" clip-rule="evenodd" d="M23.5149 14.1949C23.4614 14.1402 23.4044 14.0886 23.3545 14.0304C23.2963 13.9615 23.3189 13.9194 23.4056 13.9081C23.5309 13.936 23.6075 13.9966 23.5707 14.1402C23.5534 14.1581 23.5344 14.1771 23.5149 14.1949Z" fill="#D7EFE0"/>
<path fill-rule="evenodd" clip-rule="evenodd" d="M23.5706 14.1402C23.513 14.0654 23.4976 13.9586 23.4056 13.9081L23.4673 13.8564C23.5671 13.9271 23.7494 13.9675 23.5706 14.1402Z" fill="#2BAB5B"/>
<path fill-rule="evenodd" clip-rule="evenodd" d="M24.1484 14.6372C24.1407 14.6325 24.1306 14.6301 24.1271 14.6236C24.0796 14.5357 23.9222 14.4567 23.9757 14.3789C24.0427 14.2851 24.1128 14.3961 24.1496 14.4763C24.1662 14.5101 24.1864 14.5434 24.2054 14.5784C24.1858 14.598 24.1662 14.6176 24.1484 14.6372Z" fill="#E6F5EC"/>
<path fill-rule="evenodd" clip-rule="evenodd" d="M23.2334 14.2839C23.2144 14.3023 23.196 14.3213 23.174 14.3397C23.1491 14.3219 23.1146 14.3095 23.0986 14.2839C23.0683 14.2263 22.9816 14.1497 23.082 14.1046C23.1663 14.0642 23.1663 14.1717 23.1936 14.224C23.2049 14.2459 23.2191 14.2643 23.2334 14.2839Z" fill="#29AA59"/>
<path fill-rule="evenodd" clip-rule="evenodd" d="M16.9486 11.9624C17.0353 11.9962 16.9896 12.0686 16.9907 12.1227C16.9955 12.1969 17.0216 12.2218 17.0911 12.1957C16.9462 12.3358 16.9646 12.1488 16.9088 12.1072C16.9237 12.058 16.9349 12.0099 16.9486 11.9624Z" fill="#DDF1E4"/>
<path fill-rule="evenodd" clip-rule="evenodd" d="M16.6606 12.0574V11.8662C16.7426 11.8923 16.745 11.9499 16.7366 12.0128C16.7117 12.0277 16.6856 12.0419 16.6606 12.0574Z" fill="#6FC690"/>
<path fill-rule="evenodd" clip-rule="evenodd" d="M15.181 11.8614C15.1893 11.7747 15.1477 11.6619 15.2956 11.6714C15.4036 11.678 15.482 11.7213 15.4879 11.8448C15.4939 11.9778 15.4161 12.0318 15.2932 12.0407C15.137 12.0532 15.2006 11.9303 15.181 11.8614Z" fill="#F5FBF7"/>
<path fill-rule="evenodd" clip-rule="evenodd" d="M22.0281 13.1677C22.0899 13.2015 22.1843 13.2081 22.2045 13.2995C22.2146 13.347 22.1736 13.3785 22.1314 13.3648C22.0531 13.3411 21.9492 13.3399 21.9385 13.2294C21.9355 13.1974 21.9699 13.157 22.0281 13.1677Z" fill="#EFF8F3"/>
<path fill-rule="evenodd" clip-rule="evenodd" d="M20.1025 12.4374C20.0865 12.4991 20.0432 12.5205 19.9933 12.5021C19.9262 12.4777 19.8181 12.5045 19.8169 12.3869C19.8146 12.3257 19.8561 12.3073 19.9119 12.3257C19.9856 12.3495 20.0746 12.3465 20.1025 12.4374Z" fill="#DEF2E5"/>
<path fill-rule="evenodd" clip-rule="evenodd" d="M14.5558 11.7065C14.6139 11.7136 14.706 11.6827 14.7 11.7819C14.6941 11.8686 14.6062 11.8549 14.5433 11.8561C14.4928 11.8579 14.4204 11.884 14.4156 11.7931C14.4121 11.6851 14.4964 11.7189 14.5558 11.7065Z" fill="#F3FAF5"/>
<path fill-rule="evenodd" clip-rule="evenodd" d="M13.8046 11.789C13.9121 11.7961 13.9655 11.8602 13.9697 11.9612C13.9756 12.0514 13.9311 12.1286 13.8385 12.1369C13.7316 12.147 13.6835 12.0657 13.6776 11.9665C13.6716 11.8751 13.7073 11.8086 13.8046 11.789Z" fill="#F3FAF6"/>
<path fill-rule="evenodd" clip-rule="evenodd" d="M24.7386 14.9935C24.7231 15.092 24.6638 15.1615 24.5492 15.1615C24.4571 15.1603 24.4227 15.0932 24.4322 15.0119C24.4411 14.9014 24.507 14.8302 24.6192 14.832C24.7077 14.8343 24.7421 14.8979 24.7386 14.9935Z" fill="#F9FCFA"/>
<path fill-rule="evenodd" clip-rule="evenodd" d="M19.1663 12.1156C19.2262 12.1524 19.3468 12.1144 19.364 12.2331C19.3693 12.2782 19.3195 12.3014 19.2797 12.2925C19.2019 12.2753 19.0932 12.3032 19.0837 12.1779C19.082 12.1393 19.0992 12.0977 19.1663 12.1156Z" fill="#E7F5EC"/>
<path fill-rule="evenodd" clip-rule="evenodd" d="M20.7931 12.7621C20.7818 12.8649 20.7314 12.9367 20.6275 12.9367C20.5253 12.9379 20.4891 12.8666 20.4939 12.7728C20.5022 12.6695 20.561 12.6006 20.6613 12.5965C20.7611 12.5929 20.7931 12.6725 20.7931 12.7621Z" fill="#F5FBF7"/>
</g>
<defs>
<clipPath id="clip0_27_0">
<rect width="38" height="27.1429" fill="white"/>
</clipPath>
</defs>
</svg>
