<svg width="36" height="26" viewBox="0 0 36 26" fill="none" xmlns="http://www.w3.org/2000/svg">
<path d="M0 22C0 23.0609 0.421427 24.0783 1.17157 24.8284C1.92172 25.5786 2.93913 26 4 26H32C33.0609 26 34.0783 25.5786 34.8284 24.8284C35.5786 24.0783 36 23.0609 36 22V18H0V22Z" fill="#0038A8"/>
<path d="M0 8H36V18H0V8Z" fill="#EEEEEE"/>
<path d="M32 0H4C2.93913 0 1.92172 0.421427 1.17157 1.17157C0.421427 1.92172 0 2.93913 0 4L0 8H36V4C36 2.93913 35.5786 1.92172 34.8284 1.17157C34.0783 0.421427 33.0609 0 32 0Z" fill="#D52B1E"/>
<path d="M22 13C22 14.0609 21.5786 15.0783 20.8284 15.8284C20.0783 16.5786 19.0609 17 18 17C16.9391 17 15.9217 16.5786 15.1716 15.8284C14.4214 15.0783 14 14.0609 14 13C14 11.9391 14.4214 10.9217 15.1716 10.1716C15.9217 9.42143 16.9391 9 18 9C19.0609 9 20.0783 9.42143 20.8284 10.1716C21.5786 10.9217 22 11.9391 22 13Z" fill="black"/>
<path d="M21.75 13C21.75 13.4925 21.6529 13.9802 21.4643 14.4352C21.2758 14.8902 20.9995 15.3036 20.6512 15.6519C20.3029 16.0001 19.8894 16.2763 19.4343 16.4647C18.9793 16.6531 18.4915 16.7501 17.999 16.75C17.5065 16.7499 17.0188 16.6529 16.5638 16.4643C16.1088 16.2758 15.6954 15.9995 15.3472 15.6511C14.9989 15.3028 14.7227 14.8893 14.5343 14.4343C14.3459 13.9792 14.249 13.4915 14.249 12.999C14.2492 12.0043 14.6444 11.0504 15.3479 10.3471C16.0513 9.64388 17.0053 9.24887 18 9.249C18.9947 9.24913 19.9486 9.6444 20.6519 10.3478C21.3551 11.0513 21.7502 12.0053 21.75 13Z" fill="#EEEEEE"/>
<path d="M21.25 13C21.25 13.862 20.9076 14.6886 20.2981 15.2981C19.6886 15.9076 18.862 16.25 18 16.25C17.138 16.25 16.3114 15.9076 15.7019 15.2981C15.0924 14.6886 14.75 13.862 14.75 13C14.75 12.138 15.0924 11.3114 15.7019 10.7019C16.3114 10.0924 17.138 9.75 18 9.75C18.862 9.75 19.6886 10.0924 20.2981 10.7019C20.9076 11.3114 21.25 12.138 21.25 13Z" fill="black"/>
<path d="M21.126 13C21.1261 13.4104 21.0454 13.8168 20.8885 14.196C20.7316 14.5752 20.5015 14.9197 20.2114 15.21C19.9213 15.5003 19.5769 15.7306 19.1978 15.8877C18.8187 16.0449 18.4124 16.1259 18.002 16.126C17.5916 16.1261 17.1852 16.0454 16.806 15.8885C16.4268 15.7316 16.0823 15.5015 15.792 15.2114C15.5017 14.9213 15.2714 14.5769 15.1142 14.1978C14.9571 13.8187 14.8761 13.4124 14.876 13.002C14.8757 12.1732 15.2047 11.3782 15.7906 10.792C16.3764 10.2058 17.1712 9.87627 18 9.876C18.8288 9.87574 19.6237 10.2047 20.21 10.7906C20.7962 11.3764 21.1257 12.1712 21.126 13Z" fill="#EEEEEE"/>
<path d="M21.132 12.98C21.1318 12.4994 21.021 12.0252 20.8082 11.5942C20.5953 11.1633 20.2862 10.7871 19.9046 10.4948C19.523 10.2025 19.0793 10.002 18.6078 9.90869C18.1363 9.81541 17.6497 9.8319 17.1855 9.95689C16.7214 10.0819 16.2923 10.312 15.9314 10.6295C15.5705 10.9469 15.2875 11.3432 15.1043 11.7875C14.9212 12.2319 14.8427 12.7125 14.8751 13.192C14.9075 13.6716 15.0498 14.1373 15.291 14.553L18.003 13.062L20.71 14.553C20.978 14.09 21.132 13.553 21.132 12.98Z" fill="#99AAB5"/>
<path d="M20.5 13C20.5 13.663 20.2366 14.2989 19.7678 14.7678C19.2989 15.2366 18.663 15.5 18 15.5C17.337 15.5 16.7011 15.2366 16.2322 14.7678C15.7634 14.2989 15.5 13.663 15.5 13C15.5 12.337 15.7634 11.7011 16.2322 11.2322C16.7011 10.7634 17.337 10.5 18 10.5C18.663 10.5 19.2989 10.7634 19.7678 11.2322C20.2366 11.7011 20.5 12.337 20.5 13Z" fill="black"/>
<path d="M18 15.4C19.3255 15.4 20.4 14.3255 20.4 13C20.4 11.6745 19.3255 10.6 18 10.6C16.6745 10.6 15.6 11.6745 15.6 13C15.6 14.3255 16.6745 15.4 18 15.4Z" fill="#EEEEEE"/>
<path d="M18 12.182L18.184 12.747H18.778L18.297 13.097L18.48 13.662L18 13.313L17.52 13.662L17.703 13.097L17.222 12.747H17.816L18 12.182Z" fill="#FFAC33"/>
<path d="M18.497 11.517C18.497 11.517 18.797 11.447 18.973 11.429C19.149 11.411 19.307 11.817 19.518 11.887C19.732 11.959 19.73 12.169 19.818 12.416C19.906 12.663 19.853 12.715 19.853 12.997C19.853 13.279 20.011 13.42 19.976 13.631C19.941 13.842 19.765 13.895 19.66 14.036C19.555 14.178 19.642 14.353 19.536 14.459C19.431 14.564 19.078 14.547 18.955 14.653C18.832 14.758 18.603 14.917 18.444 14.829C18.286 14.741 17.951 14.706 17.951 14.706C17.951 14.706 18.039 14.389 18.286 14.283C18.533 14.178 18.638 14.195 18.867 14.125C19.096 14.054 19.078 13.948 19.237 13.808C19.395 13.667 19.413 13.473 19.501 13.332C19.59 13.191 19.607 13.085 19.572 12.891C19.531 12.692 19.4718 12.4971 19.395 12.309C19.325 12.133 19.166 11.922 19.06 11.798C18.955 11.675 18.497 11.517 18.497 11.517Z" fill="#007127"/>
<path d="M17.405 11.622C17.405 11.622 17.58 11.239 17.405 11.217C16.7 11.129 16.559 11.763 16.348 11.833C16.135 11.905 16.101 12.256 16.014 12.502C15.926 12.749 15.961 12.801 15.961 13.084C15.961 13.366 15.966 13.418 16.002 13.63C16.037 13.841 16.085 14 16.19 14.141C16.296 14.282 16.336 14.352 16.442 14.457C16.547 14.562 16.754 14.669 16.877 14.774C17 14.879 17.375 14.915 17.534 14.827C17.692 14.739 17.969 14.704 17.969 14.704C17.969 14.704 17.851 14.492 17.605 14.387C17.358 14.282 17.341 14.194 17.112 14.123C16.883 14.052 16.901 13.946 16.742 13.806C16.584 13.665 16.566 13.471 16.478 13.33C16.39 13.189 16.437 13.154 16.473 12.96C16.508 12.766 16.578 12.608 16.649 12.432C16.719 12.256 16.896 12.027 17.001 11.904C17.106 11.781 17.405 11.622 17.405 11.622Z" fill="#007127"/>
<path d="M17.423 14.863L17.652 15.021L17.951 14.81L18.233 15.004L18.603 14.863L18.233 15.128L17.969 14.916L17.687 15.11L17.405 14.951L17.423 14.863Z" fill="#007127"/>
</svg>
