<svg width="183" height="181" viewBox="0 0 183 181" fill="none" xmlns="http://www.w3.org/2000/svg">
<path d="M94.5942 53.8522L107.181 57.4976C111.652 58.7968 118.973 60.9137 123.452 62.2129L136.038 65.8583C140.509 67.1499 145.01 64.5133 146.042 59.9814L148.939 47.2493C149.963 42.725 151.644 35.3196 152.676 30.7877L155.572 18.0556C156.604 13.5314 153.677 12.0411 149.069 14.7389L141.174 19.3778C138.278 14.4638 135.389 9.57268 134.265 7.78438C131.721 3.72631 126.829 0.615885 117.231 0.669381C110.1 0.707592 91.1704 0.814585 79.1873 0.883366L95.068 28.6785C95.4272 29.03 95.7558 29.4809 96.0538 30.0694C96.8104 31.5978 99.6916 36.8481 102.557 42.0449L94.8311 46.5844C90.2228 49.2821 90.1158 52.553 94.5942 53.8522Z" fill="url(#paint0_linear_17_46)"/>
<path d="M50.5668 10.146C46.4858 16.321 36.1381 32.752 36.1381 32.752C33.8225 36.4356 34.9994 41.2579 38.7671 43.4512L64.1396 58.285C67.9072 60.4859 72.8441 59.2479 75.1063 55.5337C75.1063 55.5337 89.4127 32.1024 90.7424 29.9396C92.1028 27.6851 93.7459 27.3489 95.0756 28.6863L79.1873 0.883545C75.0451 0.906472 71.7207 0.929399 70.0241 0.937041C63.4212 0.975253 55.8706 2.1216 50.5668 10.146Z" fill="url(#paint1_linear_17_46)"/>
<path d="M5.69116 114.005C8.54938 119.53 16.4592 133.753 22.2597 144.169L40.2421 114.884C42.359 111.284 46.2871 104.597 49.5657 99.0641L58.767 104.162C63.4365 106.752 66.3253 105.186 65.1866 100.684L61.9615 88.021C60.8228 83.5273 58.9504 76.1601 57.8041 71.6588L54.5943 58.9955C53.448 54.4942 48.8855 51.9646 44.4453 53.3708L31.9578 57.3371C27.5176 58.7433 20.2574 61.0513 15.8172 62.4575L3.32204 66.4238C-1.11814 67.83 -0.927086 71.1009 3.74237 73.684L10.5287 77.444C7.05913 84.1234 2.97814 92.0103 1.95407 94.2724C0.0893417 98.3611 1.24333 105.415 5.69116 114.005Z" fill="url(#paint2_linear_17_46)"/>
<path d="M40.2344 114.884L22.2521 144.169C25.4848 149.97 28.0602 154.601 28.7404 155.885C30.6357 159.477 33.3564 166.515 50.5133 166.416C67.6627 166.317 75.4579 166.271 75.4579 166.271C79.8216 166.248 83.3753 162.671 83.3447 158.323L83.1766 128.992C83.146 124.643 79.5618 121.105 75.1904 121.128C75.1904 121.128 45.9891 121.296 41.1209 121.319C38.0487 121.334 37.6513 119.309 38.7365 117.421C38.897 117.169 39.4473 116.236 40.2344 114.884Z" fill="url(#paint3_linear_17_46)"/>
<path d="M144.842 118.009L159.707 147.585C164.911 138.04 173.738 121.456 177.353 114.288C182.183 104.696 183.551 96.3816 181.319 92.0102C179.088 87.6312 168.083 66.3703 168.083 66.3703C166.08 62.5032 161.403 61.2041 157.682 63.4815L132.477 78.9266C128.755 81.204 127.456 86.1791 129.581 89.9774C129.581 89.9774 137.238 103.695 141.503 111.376C142.825 113.76 143.826 115.564 144.17 116.19C144.521 116.84 144.743 117.451 144.842 118.009Z" fill="url(#paint4_linear_17_46)"/>
<path d="M156.031 154.219C156.619 153.225 157.957 150.802 159.707 147.585L144.842 118.009C145.156 119.729 144.285 120.898 142.145 120.906C140.685 120.913 133.44 120.959 126.776 120.997L126.692 111.827C126.638 106.5 123.857 104.773 120.486 107.983L111.025 117.016C107.663 120.226 102.152 125.476 98.7898 128.693L89.3286 137.726C85.966 140.936 86.0119 146.141 89.428 149.297L99.0573 158.162C102.481 161.311 108.075 166.462 111.499 169.618L121.121 178.483C124.544 181.632 127.303 179.859 127.257 174.532L127.173 165.812C130.941 165.789 135.098 165.766 138.943 165.743C149.649 165.69 153.692 158.147 156.031 154.219Z" fill="url(#paint5_linear_17_46)"/>
<defs>
<linearGradient id="paint0_linear_17_46" x1="85.1484" y1="-5.07443" x2="149.007" y2="58.7845" gradientUnits="userSpaceOnUse">
<stop stop-color="#00254A"/>
<stop offset="1" stop-color="#004B97"/>
</linearGradient>
<linearGradient id="paint1_linear_17_46" x1="34.9519" y1="30.1289" x2="95.0716" y2="30.1289" gradientUnits="userSpaceOnUse">
<stop stop-color="#00254A"/>
<stop offset="1" stop-color="#004B97"/>
</linearGradient>
<linearGradient id="paint2_linear_17_46" x1="0.112269" y1="98.5794" x2="65.436" y2="98.5794" gradientUnits="userSpaceOnUse">
<stop stop-color="#00254A"/>
<stop offset="1" stop-color="#004B97"/>
</linearGradient>
<linearGradient id="paint3_linear_17_46" x1="22.2583" y1="140.65" x2="83.3561" y2="140.65" gradientUnits="userSpaceOnUse">
<stop stop-color="#00254A"/>
<stop offset="1" stop-color="#004B97"/>
</linearGradient>
<linearGradient id="paint4_linear_17_46" x1="135.661" y1="123.536" x2="180.714" y2="78.4834" gradientUnits="userSpaceOnUse">
<stop stop-color="#00254A"/>
<stop offset="1" stop-color="#004B97"/>
</linearGradient>
<linearGradient id="paint5_linear_17_46" x1="86.8408" y1="143.209" x2="159.71" y2="143.209" gradientUnits="userSpaceOnUse">
<stop stop-color="#00254A"/>
<stop offset="1" stop-color="#004B97"/>
</linearGradient>
</defs>
</svg>
